<mxfile host="app.diagrams.net" agent="Mozilla/5.0 (Windows NT 10.0; Win64; x64) AppleWebKit/537.36 (KHTML, like Gecko) Chrome/133.0.0.0 Safari/537.36 Edg/133.0.0.0" version="26.0.15">
  <diagram name="Sayfa -1" id="WjxD5JkqAk5JCySbNv31">
    <mxGraphModel dx="1426" dy="1958" grid="1" gridSize="10" guides="1" tooltips="1" connect="1" arrows="1" fold="1" page="1" pageScale="1" pageWidth="827" pageHeight="1169" math="0" shadow="0">
      <root>
        <mxCell id="0" />
        <mxCell id="1" parent="0" />
        <mxCell id="jMiQxAaDWgFZVQpz-3jK-4" value="" style="edgeStyle=orthogonalEdgeStyle;rounded=0;orthogonalLoop=1;jettySize=auto;html=1;" edge="1" parent="1" source="jMiQxAaDWgFZVQpz-3jK-2" target="jMiQxAaDWgFZVQpz-3jK-3">
          <mxGeometry relative="1" as="geometry" />
        </mxCell>
        <mxCell id="jMiQxAaDWgFZVQpz-3jK-2" value="Kalite Kontrol" style="whiteSpace=wrap;html=1;" vertex="1" parent="1">
          <mxGeometry x="200" y="340" width="120" height="60" as="geometry" />
        </mxCell>
        <mxCell id="jMiQxAaDWgFZVQpz-3jK-57" value="" style="edgeStyle=orthogonalEdgeStyle;rounded=0;orthogonalLoop=1;jettySize=auto;html=1;" edge="1" parent="1" source="jMiQxAaDWgFZVQpz-3jK-3" target="jMiQxAaDWgFZVQpz-3jK-56">
          <mxGeometry relative="1" as="geometry" />
        </mxCell>
        <mxCell id="jMiQxAaDWgFZVQpz-3jK-3" value="Montaj Depo" style="whiteSpace=wrap;html=1;" vertex="1" parent="1">
          <mxGeometry x="398" y="340" width="120" height="60" as="geometry" />
        </mxCell>
        <mxCell id="jMiQxAaDWgFZVQpz-3jK-52" value="" style="edgeStyle=orthogonalEdgeStyle;rounded=0;orthogonalLoop=1;jettySize=auto;html=1;" edge="1" parent="1" source="jMiQxAaDWgFZVQpz-3jK-17" target="jMiQxAaDWgFZVQpz-3jK-3">
          <mxGeometry relative="1" as="geometry" />
        </mxCell>
        <mxCell id="jMiQxAaDWgFZVQpz-3jK-53" value="Evet" style="edgeLabel;html=1;align=center;verticalAlign=middle;resizable=0;points=[];" vertex="1" connectable="0" parent="jMiQxAaDWgFZVQpz-3jK-52">
          <mxGeometry x="0.1429" y="2" relative="1" as="geometry">
            <mxPoint as="offset" />
          </mxGeometry>
        </mxCell>
        <mxCell id="jMiQxAaDWgFZVQpz-3jK-54" value="" style="edgeStyle=orthogonalEdgeStyle;rounded=0;orthogonalLoop=1;jettySize=auto;html=1;" edge="1" parent="1" source="jMiQxAaDWgFZVQpz-3jK-17" target="jMiQxAaDWgFZVQpz-3jK-25">
          <mxGeometry relative="1" as="geometry" />
        </mxCell>
        <mxCell id="jMiQxAaDWgFZVQpz-3jK-55" value="Hayır" style="edgeLabel;html=1;align=center;verticalAlign=middle;resizable=0;points=[];" vertex="1" connectable="0" parent="jMiQxAaDWgFZVQpz-3jK-54">
          <mxGeometry x="-0.4667" y="-4" relative="1" as="geometry">
            <mxPoint y="4" as="offset" />
          </mxGeometry>
        </mxCell>
        <mxCell id="jMiQxAaDWgFZVQpz-3jK-17" value="Stokta Var mı?" style="rhombus;whiteSpace=wrap;html=1;" vertex="1" parent="1">
          <mxGeometry x="418" y="190" width="80" height="80" as="geometry" />
        </mxCell>
        <mxCell id="jMiQxAaDWgFZVQpz-3jK-39" value="" style="edgeStyle=orthogonalEdgeStyle;rounded=0;orthogonalLoop=1;jettySize=auto;html=1;" edge="1" parent="1" source="jMiQxAaDWgFZVQpz-3jK-19" target="jMiQxAaDWgFZVQpz-3jK-17">
          <mxGeometry relative="1" as="geometry" />
        </mxCell>
        <mxCell id="jMiQxAaDWgFZVQpz-3jK-51" value="Evet" style="edgeLabel;html=1;align=center;verticalAlign=middle;resizable=0;points=[];" vertex="1" connectable="0" parent="jMiQxAaDWgFZVQpz-3jK-39">
          <mxGeometry x="-0.2" y="1" relative="1" as="geometry">
            <mxPoint as="offset" />
          </mxGeometry>
        </mxCell>
        <mxCell id="jMiQxAaDWgFZVQpz-3jK-47" value="" style="edgeStyle=orthogonalEdgeStyle;rounded=0;orthogonalLoop=1;jettySize=auto;html=1;" edge="1" parent="1" source="jMiQxAaDWgFZVQpz-3jK-19" target="jMiQxAaDWgFZVQpz-3jK-40">
          <mxGeometry relative="1" as="geometry" />
        </mxCell>
        <mxCell id="jMiQxAaDWgFZVQpz-3jK-48" value="Hayır" style="edgeLabel;html=1;align=center;verticalAlign=middle;resizable=0;points=[];" vertex="1" connectable="0" parent="jMiQxAaDWgFZVQpz-3jK-47">
          <mxGeometry x="0.1556" y="-4" relative="1" as="geometry">
            <mxPoint x="12" y="4" as="offset" />
          </mxGeometry>
        </mxCell>
        <mxCell id="jMiQxAaDWgFZVQpz-3jK-19" value="OEM mi?" style="rhombus;whiteSpace=wrap;html=1;" vertex="1" parent="1">
          <mxGeometry x="418" y="40" width="80" height="80" as="geometry" />
        </mxCell>
        <mxCell id="jMiQxAaDWgFZVQpz-3jK-25" value="Üretim" style="whiteSpace=wrap;html=1;" vertex="1" parent="1">
          <mxGeometry x="158" y="210" width="120" height="60" as="geometry" />
        </mxCell>
        <mxCell id="jMiQxAaDWgFZVQpz-3jK-90" style="edgeStyle=orthogonalEdgeStyle;rounded=0;orthogonalLoop=1;jettySize=auto;html=1;entryX=0;entryY=0.5;entryDx=0;entryDy=0;" edge="1" parent="1" source="jMiQxAaDWgFZVQpz-3jK-33" target="jMiQxAaDWgFZVQpz-3jK-60">
          <mxGeometry relative="1" as="geometry">
            <Array as="points">
              <mxPoint x="80" y="850" />
            </Array>
          </mxGeometry>
        </mxCell>
        <mxCell id="jMiQxAaDWgFZVQpz-3jK-33" value="Kardex Depo" style="whiteSpace=wrap;html=1;" vertex="1" parent="1">
          <mxGeometry x="38" y="50" width="120" height="60" as="geometry" />
        </mxCell>
        <mxCell id="jMiQxAaDWgFZVQpz-3jK-42" value="" style="edgeStyle=orthogonalEdgeStyle;rounded=0;orthogonalLoop=1;jettySize=auto;html=1;" edge="1" parent="1" source="jMiQxAaDWgFZVQpz-3jK-40" target="jMiQxAaDWgFZVQpz-3jK-33">
          <mxGeometry relative="1" as="geometry" />
        </mxCell>
        <mxCell id="jMiQxAaDWgFZVQpz-3jK-49" value="Evet" style="edgeLabel;html=1;align=center;verticalAlign=middle;resizable=0;points=[];" vertex="1" connectable="0" parent="jMiQxAaDWgFZVQpz-3jK-42">
          <mxGeometry x="-0.1333" y="-4" relative="1" as="geometry">
            <mxPoint y="4" as="offset" />
          </mxGeometry>
        </mxCell>
        <mxCell id="jMiQxAaDWgFZVQpz-3jK-43" value="" style="edgeStyle=orthogonalEdgeStyle;rounded=0;orthogonalLoop=1;jettySize=auto;html=1;" edge="1" parent="1" source="jMiQxAaDWgFZVQpz-3jK-40" target="jMiQxAaDWgFZVQpz-3jK-25">
          <mxGeometry relative="1" as="geometry">
            <Array as="points">
              <mxPoint x="288" y="190" />
            </Array>
          </mxGeometry>
        </mxCell>
        <mxCell id="jMiQxAaDWgFZVQpz-3jK-50" value="Hayır" style="edgeLabel;html=1;align=center;verticalAlign=middle;resizable=0;points=[];" vertex="1" connectable="0" parent="jMiQxAaDWgFZVQpz-3jK-43">
          <mxGeometry x="-0.6737" y="-2" relative="1" as="geometry">
            <mxPoint as="offset" />
          </mxGeometry>
        </mxCell>
        <mxCell id="jMiQxAaDWgFZVQpz-3jK-40" value="Stokta Var mı?" style="rhombus;whiteSpace=wrap;html=1;" vertex="1" parent="1">
          <mxGeometry x="248" y="40" width="80" height="80" as="geometry" />
        </mxCell>
        <mxCell id="jMiQxAaDWgFZVQpz-3jK-59" value="" style="edgeStyle=orthogonalEdgeStyle;rounded=0;orthogonalLoop=1;jettySize=auto;html=1;" edge="1" parent="1" source="jMiQxAaDWgFZVQpz-3jK-56" target="jMiQxAaDWgFZVQpz-3jK-58">
          <mxGeometry relative="1" as="geometry" />
        </mxCell>
        <mxCell id="jMiQxAaDWgFZVQpz-3jK-56" value="Ürün Montajlanması" style="whiteSpace=wrap;html=1;" vertex="1" parent="1">
          <mxGeometry x="398" y="430" width="120" height="60" as="geometry" />
        </mxCell>
        <mxCell id="jMiQxAaDWgFZVQpz-3jK-85" value="" style="edgeStyle=orthogonalEdgeStyle;rounded=0;orthogonalLoop=1;jettySize=auto;html=1;" edge="1" parent="1" source="jMiQxAaDWgFZVQpz-3jK-58" target="jMiQxAaDWgFZVQpz-3jK-84">
          <mxGeometry relative="1" as="geometry" />
        </mxCell>
        <mxCell id="jMiQxAaDWgFZVQpz-3jK-58" value="Etiketleme" style="whiteSpace=wrap;html=1;" vertex="1" parent="1">
          <mxGeometry x="398" y="525" width="120" height="60" as="geometry" />
        </mxCell>
        <mxCell id="jMiQxAaDWgFZVQpz-3jK-60" value="Sevkiyat Depo" style="whiteSpace=wrap;html=1;" vertex="1" parent="1">
          <mxGeometry x="398" y="820" width="120" height="60" as="geometry" />
        </mxCell>
        <mxCell id="jMiQxAaDWgFZVQpz-3jK-74" style="edgeStyle=orthogonalEdgeStyle;rounded=0;orthogonalLoop=1;jettySize=auto;html=1;" edge="1" parent="1" source="jMiQxAaDWgFZVQpz-3jK-73" target="jMiQxAaDWgFZVQpz-3jK-19">
          <mxGeometry relative="1" as="geometry">
            <mxPoint x="490" y="30.000000000000227" as="targetPoint" />
          </mxGeometry>
        </mxCell>
        <mxCell id="jMiQxAaDWgFZVQpz-3jK-75" value="Evet" style="edgeLabel;html=1;align=center;verticalAlign=middle;resizable=0;points=[];" vertex="1" connectable="0" parent="jMiQxAaDWgFZVQpz-3jK-74">
          <mxGeometry x="0.1536" relative="1" as="geometry">
            <mxPoint as="offset" />
          </mxGeometry>
        </mxCell>
        <mxCell id="jMiQxAaDWgFZVQpz-3jK-82" style="edgeStyle=orthogonalEdgeStyle;rounded=0;orthogonalLoop=1;jettySize=auto;html=1;entryX=1;entryY=0.5;entryDx=0;entryDy=0;" edge="1" parent="1" source="jMiQxAaDWgFZVQpz-3jK-73" target="jMiQxAaDWgFZVQpz-3jK-3">
          <mxGeometry relative="1" as="geometry">
            <Array as="points">
              <mxPoint x="610" y="-50" />
              <mxPoint x="610" y="370" />
            </Array>
          </mxGeometry>
        </mxCell>
        <mxCell id="jMiQxAaDWgFZVQpz-3jK-83" value="Hayır" style="edgeLabel;html=1;align=center;verticalAlign=middle;resizable=0;points=[];" vertex="1" connectable="0" parent="jMiQxAaDWgFZVQpz-3jK-82">
          <mxGeometry x="-0.1066" y="-3" relative="1" as="geometry">
            <mxPoint as="offset" />
          </mxGeometry>
        </mxCell>
        <mxCell id="jMiQxAaDWgFZVQpz-3jK-73" value="Sipariş mi?" style="rhombus;whiteSpace=wrap;html=1;" vertex="1" parent="1">
          <mxGeometry x="470" y="-90" width="80" height="80" as="geometry" />
        </mxCell>
        <mxCell id="jMiQxAaDWgFZVQpz-3jK-80" value="" style="edgeStyle=orthogonalEdgeStyle;rounded=0;orthogonalLoop=1;jettySize=auto;html=1;" edge="1" parent="1" source="jMiQxAaDWgFZVQpz-3jK-79" target="jMiQxAaDWgFZVQpz-3jK-73">
          <mxGeometry relative="1" as="geometry" />
        </mxCell>
        <mxCell id="jMiQxAaDWgFZVQpz-3jK-79" value="Talep" style="whiteSpace=wrap;html=1;" vertex="1" parent="1">
          <mxGeometry x="450" y="-190" width="120" height="60" as="geometry" />
        </mxCell>
        <mxCell id="jMiQxAaDWgFZVQpz-3jK-86" value="" style="edgeStyle=orthogonalEdgeStyle;rounded=0;orthogonalLoop=1;jettySize=auto;html=1;" edge="1" parent="1" source="jMiQxAaDWgFZVQpz-3jK-84" target="jMiQxAaDWgFZVQpz-3jK-60">
          <mxGeometry relative="1" as="geometry" />
        </mxCell>
        <mxCell id="jMiQxAaDWgFZVQpz-3jK-87" value="Evet" style="edgeLabel;html=1;align=center;verticalAlign=middle;resizable=0;points=[];" vertex="1" connectable="0" parent="jMiQxAaDWgFZVQpz-3jK-86">
          <mxGeometry x="-0.0824" y="-3" relative="1" as="geometry">
            <mxPoint as="offset" />
          </mxGeometry>
        </mxCell>
        <mxCell id="jMiQxAaDWgFZVQpz-3jK-84" value="Sipariş mi?" style="rhombus;whiteSpace=wrap;html=1;" vertex="1" parent="1">
          <mxGeometry x="418" y="655" width="80" height="80" as="geometry" />
        </mxCell>
        <mxCell id="jMiQxAaDWgFZVQpz-3jK-91" style="edgeStyle=orthogonalEdgeStyle;rounded=0;orthogonalLoop=1;jettySize=auto;html=1;entryX=0.661;entryY=0.962;entryDx=0;entryDy=0;entryPerimeter=0;" edge="1" parent="1" source="jMiQxAaDWgFZVQpz-3jK-84" target="jMiQxAaDWgFZVQpz-3jK-33">
          <mxGeometry relative="1" as="geometry" />
        </mxCell>
        <mxCell id="jMiQxAaDWgFZVQpz-3jK-92" value="Hayır" style="edgeLabel;html=1;align=center;verticalAlign=middle;resizable=0;points=[];" vertex="1" connectable="0" parent="jMiQxAaDWgFZVQpz-3jK-91">
          <mxGeometry x="-0.6725" y="-3" relative="1" as="geometry">
            <mxPoint as="offset" />
          </mxGeometry>
        </mxCell>
      </root>
    </mxGraphModel>
  </diagram>
</mxfile>
